<svg width="16" height="16" viewBox="0 0 16 16" fill="none" xmlns="http://www.w3.org/2000/svg">
<path d="M8 0C8.32394 0 8.64316 0.0211673 8.95703 0.0585938C8.35545 0.884055 8 1.9004 8 3C8 5.76142 10.2386 8 13 8C14.0995 8 15.115 7.6435 15.9404 7.04199C15.9779 7.35621 16 7.67568 16 8C16 12.4183 12.4183 16 8 16C7.67568 16 7.35621 15.9779 7.04199 15.9404C7.6435 15.115 8 14.0995 8 13C8 10.2386 5.76142 8 3 8C1.9004 8 0.884055 8.35545 0.0585938 8.95703C0.0211673 8.64316 0 8.32394 0 8C0 3.58172 3.58172 0 8 0ZM3 9C5.20914 9 7 10.7909 7 13C7 14.0541 6.59119 15.012 5.9248 15.7266C3.17433 14.9897 1.00893 12.8249 0.272461 10.0742C0.986993 9.40781 1.94586 9 3 9ZM10.0742 0.272461C12.8249 1.00893 14.9897 3.17433 15.7266 5.9248C15.012 6.59119 14.0541 7 13 7C10.7909 7 9 5.20914 9 3C9 1.94586 9.40781 0.986993 10.0742 0.272461Z" fill="#BEF264"/>
</svg>
